<svg xmlns="http://www.w3.org/2000/svg" xmlns:xlink="http://www.w3.org/1999/xlink" width="89.465" height="97.626" viewBox="0 0 89.465 97.626"><defs><style>.a{fill:none;}.b{fill:#fee3dc;opacity:0.3;}.c{clip-path:url(#a);}.d{fill:#f0b89f;}.e{fill:#493030;}.f{fill:#009ceb;}.g{fill:#d46e59;}.h{fill:#7700e6;}.i{fill:#3d8f85;}.j{fill:#38a295;}.k{opacity:0.084;}.l{fill:#eb7f61;}.m{opacity:0.2;}.n{fill:#e59c7e;}.o{fill:#e24c2c;}</style><clipPath id="a"><path class="a" d="M119.323,200.548c-1.952-5.5-5.474-10.285-8.837-15.06s-6.674-9.756-8.1-15.419c-1.327-5.271-.963-10.923-2.838-16.025a19.436,19.436,0,0,0-11.061-11.258,24.54,24.54,0,0,0-7.287-2,14.553,14.553,0,0,0-6.988-1.739c-5.783.08-11.2,3.42-14.755,7.984s-5.429,10.232-6.433,15.929a31.968,31.968,0,0,0,.113,13.723c.159.6.35,1.192.567,1.775q-2.073,1.889-4.277,3.647c-5.569,4.441-11.367,8.95-14.856,15.16a26.452,26.452,0,0,0,24.64,39.362c9.485-.568,17.92-6.126,27.178-8.268,5.656-1.308,11.539-1.319,17.238-2.435s11.515-3.616,14.657-8.5C121.446,212.52,121.276,206.053,119.323,200.548Z" transform="translate(-31.271 -139.05)"/></clipPath></defs><g transform="translate(-594.271 -329.105)"><path class="b" d="M65.152,165.906a74.865,74.865,0,0,1-15.723,16.819c-5.569,4.441-11.367,8.95-14.856,15.16a26.452,26.452,0,0,0,24.64,39.362c9.485-.567,17.92-6.126,27.178-8.268,5.656-1.308,11.539-1.319,17.238-2.435s11.515-3.616,14.657-8.5c3.16-4.911,2.99-11.379,1.037-16.882s-5.474-10.286-8.837-15.06-6.674-9.757-8.1-15.42c-1.327-5.271-.963-10.923-2.838-16.025A19.436,19.436,0,0,0,88.487,143.4c-3.247-1.26-7.817-3.1-11.155-1.184-3.029,1.738-4.061,6.018-5.051,9.077A59.077,59.077,0,0,1,65.152,165.906Z" transform="translate(563 189.44)"/><g transform="translate(594.271 329.105)"><g class="c" transform="translate(0 0)"><g transform="translate(6.075 7.336)"><path class="d" d="M125.912,198.089a2.092,2.092,0,0,1,3.209,1.5c.5.341.268,1.386-.216,1.75a2.258,2.258,0,0,1-1.747.256,3.133,3.133,0,0,1-2.507-1.7C125.062,199.378,125.355,198.448,125.912,198.089Z" transform="translate(-61.905 -161.828)"/><path class="e" d="M91.661,158.221a7.581,7.581,0,0,0,7.921-5.663,13.363,13.363,0,0,1-5.408-1.667,15.97,15.97,0,0,0-5.359-1.862,5.1,5.1,0,0,0-4.934,2.184c-1.057.158-1.737,1.322-2.053,2.343a7.539,7.539,0,0,0,3.359,8.708,7.857,7.857,0,0,1,2.675-2.916C88.945,158.744,90.907,159.206,91.661,158.221Z" transform="translate(-50.555 -149.004)"/><path class="f" d="M92.233,172.837a55.835,55.835,0,0,0,25.718,18.384c-.52.884-1.285,1.73-1.806,2.615a49.087,49.087,0,0,1-23.738-7.925C88.789,183.541,90.117,176.61,92.233,172.837Z" transform="translate(-52.831 -155.272)"/><path class="g" d="M92.233,172.837a55.835,55.835,0,0,0,25.718,18.384c-.52.884-1.285,1.73-1.806,2.615a49.087,49.087,0,0,1-23.738-7.925C88.789,183.541,90.117,176.61,92.233,172.837Z" transform="translate(-52.831 -155.272)"/><path class="h" d="M83.066,210.006c2.4,5.261.13,11.378-2.267,16.641a340.4,340.4,0,0,1-18.6,35.217,17.508,17.508,0,0,1-5.6-3.37,175.542,175.542,0,0,0,17.313-42.7C74.879,212.115,79.266,209.92,83.066,210.006Z" transform="translate(-44.006 -165.047)"/><path class="i" d="M83.066,210.006c2.4,5.261.13,11.378-2.267,16.641a340.4,340.4,0,0,1-18.6,35.217,17.508,17.508,0,0,1-5.6-3.37,175.542,175.542,0,0,0,17.313-42.7C74.879,212.115,79.266,209.92,83.066,210.006Z" transform="translate(-44.006 -165.047)"/><path class="j" d="M72.994,210.862c-1.082,4.263,1.1,8.588,3.045,12.536A142.551,142.551,0,0,1,89.1,265.334a10.934,10.934,0,0,0,6.1-1.468c-.461-17.6-8.855-34.517-11.747-51.883C80.208,211.55,76.088,211.923,72.994,210.862Z" transform="translate(-48.243 -165.273)"/><path class="k" d="M87.9,211.667a22.112,22.112,0,0,1-1.683-1.6,10.958,10.958,0,0,0-4.706,1.537c-2.84-.167-6.01-.091-8.515-.95-.755,2.974.083,5.979,1.316,8.863a24.136,24.136,0,0,0,13.94-5.948A11.806,11.806,0,0,0,87.9,211.667Z" transform="translate(-48.243 -165.063)"/><path class="l" d="M82.141,169.109c-3.352,2.508-5.144,6.55-6.587,10.479-2.595,7.066-4.536,14.528-4.09,22.042,3.166,1.719,7.107,1.3,10.707,1.17a24.514,24.514,0,0,0,6.679-.869c-1.5-8.685,2.433-18.246.43-26.828A8.693,8.693,0,0,0,82.141,169.109Z" transform="translate(-47.9 -154.292)"/><path class="d" d="M85.556,162.9q-.681,2.9-1.134,5.855a4.82,4.82,0,0,0,3.6,1.116,37.564,37.564,0,0,1,1.655-4.933C88.376,164.34,86.862,163.5,85.556,162.9Z" transform="translate(-51.325 -152.659)"/><path class="m" d="M85.11,165.839a11.781,11.781,0,0,0,3.352,3.087c.387-1.352.894-2.673,1.4-3.986-1.306-.6-2.82-1.437-4.126-2.038Q85.394,164.365,85.11,165.839Z" transform="translate(-51.505 -152.659)"/><path class="d" d="M93.107,154.211a24.652,24.652,0,0,1-2.285,11.112,8.444,8.444,0,0,1-7.245-8.642,5.123,5.123,0,0,1,1.063-3.093,5.243,5.243,0,0,1,3.612-1.624A5.554,5.554,0,0,1,93.107,154.211Z" transform="translate(-51.1 -149.778)"/><path class="e" d="M94.783,157.845a6.571,6.571,0,0,1-6.268-1.128,4.134,4.134,0,0,1-1.732,1.483c-.126.628-.273,1.316-.4,1.944-.075-.027-.206-.116-.282-.142a8.03,8.03,0,0,0-.573-2.2c-.076-.181-.189-.384-.383-.413-.234-.035-.413.2-.5.424a2.665,2.665,0,0,0,.663,2.9c-.195.368-.649.883-.843,1.251-2.321-1.73-2.823-5.275-1.61-7.9a6.372,6.372,0,0,1,12.156,2.779Z" transform="translate(-50.744 -149.365)"/><path class="n" d="M95.712,165.811c.149.026.32.055.4.184a.32.32,0,0,1-.069.371.74.74,0,0,1-.358.178,2.305,2.305,0,0,1-2.814-1.715c-.061-.265-.083-.876.331-.837.306.029.533.578.71.783A3.142,3.142,0,0,0,95.712,165.811Z" transform="translate(-53.537 -152.946)"/><g transform="translate(0 62.201)"><g transform="translate(8.241)"><path class="l" d="M60.094,242.456H53.9a3.206,3.206,0,0,1-3.2-3.2V236.6a3.206,3.206,0,0,1,3.2-3.2h6.2a3.206,3.206,0,0,1,3.2,3.2v2.65A3.206,3.206,0,0,1,60.094,242.456Zm-6.2-8.317a2.468,2.468,0,0,0-2.465,2.465v2.65a2.468,2.468,0,0,0,2.465,2.465h6.2a2.468,2.468,0,0,0,2.465-2.465V236.6a2.468,2.468,0,0,0-2.465-2.465Z" transform="translate(-50.695 -233.402)"/></g><rect class="l" width="26.854" height="17.332" transform="translate(1.114 3.567)"/><path class="m" d="M67.88,240.018H41.025v6.7a6.8,6.8,0,0,0,5.694,3.081H62.186a6.8,6.8,0,0,0,5.694-3.081Z" transform="translate(-39.911 -235.142)"/><path class="o" d="M0,0H29.083a0,0,0,0,1,0,0V.546a9.237,9.237,0,0,1-9.237,9.237H9.237A9.237,9.237,0,0,1,0,.546V0A0,0,0,0,1,0,0Z" transform="translate(0 3.567)"/></g><path class="d" d="M59.559,228.455a2.827,2.827,0,0,1,.024,4.786c-.128.809-1.538,1.13-2.263.749A3.05,3.05,0,0,1,56,232a4.236,4.236,0,0,1,.623-4.043C57.493,228.162,58.8,227.981,59.559,228.455Z" transform="translate(-43.788 -169.77)"/><path class="l" d="M77.666,170.125a14.193,14.193,0,0,0-8.875,4.592,31.163,31.163,0,0,0-5.448,8.588,79.329,79.329,0,0,0-7.283,30.262,8.316,8.316,0,0,0,4.785.643c.523-12.222,6.063-25.808,15.489-33.6C77.161,176.877,77.86,173.94,77.666,170.125Z" transform="translate(-43.865 -154.559)"/></g></g></g></g></svg>