<svg xmlns="http://www.w3.org/2000/svg" xmlns:xlink="http://www.w3.org/1999/xlink" width="467.211" height="29.93" viewBox="0 0 467.211 29.93"><defs><style>.a{fill:#2a2a6d;}.b{fill:#ee0005;}.c{fill:#f9a000;}.d{fill:#ff6300;}.e{fill:#006ac9;}.f{fill:#2fabf7;}.g{fill:url(#a);}.h{fill:#228fe0;}.i{fill:#2391e2;}.j{fill:#0f549d;}.k{fill:#b41f36;}.l{fill:#329947;}.m{fill:#f3f2f2;}.n{fill:url(#b);}.o{fill:#595a5b;}.p{fill:#3b3d3f;}</style><linearGradient id="a" x1="0.071" y1="0.152" x2="0.74" y2="1.844" gradientUnits="objectBoundingBox"><stop offset="0" stop-color="#2fabf7"/><stop offset="1" stop-color="#228fe0"/></linearGradient><linearGradient id="b" x1="0.162" y1="0.142" x2="0.929" y2="1.186" gradientUnits="objectBoundingBox"><stop offset="0" stop-color="#f44902"/><stop offset="0.521" stop-color="#f77824"/><stop offset="1" stop-color="#ef891e"/></linearGradient></defs><g transform="translate(-139.155 -452)"><g transform="translate(408.83 458)"><path class="a" d="M-797.02,845.3l-4.08,18.505h4.946L-792.2,845.3Z" transform="translate(822.01 -844.93)"/><path class="a" d="M-800.195,845.322l-5.07,12.54-2.1-10.714a2.218,2.218,0,0,0-2.226-1.826h-8.284l-.124.487a22.257,22.257,0,0,1,4.822,1.583c.742.365.866.731,1.113,1.583l3.833,14.731h5.193l7.913-18.506h-5.07Z" transform="translate(818 -844.953)"/><path class="a" d="M-769.9,845.3h-4.2a2.167,2.167,0,0,0-2.1,1.339l-7.3,17.166h5.07l.989-2.8h6.182l.618,2.8h4.451Zm-5.935,11.931,2.6-6.939,1.484,6.939Z" transform="translate(826.189 -844.93)"/><path class="a" d="M-787.352,850.481c0-.609.618-1.34,2.1-1.583a9.288,9.288,0,0,1,4.822.852l.866-3.9a14.511,14.511,0,0,0-4.575-.853c-4.822,0-8.161,2.558-8.161,6.09,0,2.68,2.473,4.141,4.2,4.994,1.855.852,2.473,1.461,2.473,2.314,0,1.218-1.484,1.827-2.968,1.827a9.337,9.337,0,0,1-4.946-1.218l-.865,4.019a14.918,14.918,0,0,0,5.44.974c5.07,0,8.408-2.436,8.408-6.333C-780.552,853.038-787.476,852.673-787.352,850.481Z" transform="translate(823.602 -845)"/></g><g transform="translate(330.039 452)"><circle class="b" cx="14.965" cy="14.965" r="14.965"/><circle class="c" cx="14.965" cy="14.965" r="14.965" transform="translate(18.592)"/><path class="d" d="M206.012,119.368a14.937,14.937,0,0,0,5.668,11.727,14.964,14.964,0,0,0,0-23.453A14.937,14.937,0,0,0,206.012,119.368Z" transform="translate(-187.42 -104.641)"/></g><g transform="translate(570.012 453.125)"><path class="e" d="M165.6,130.182a8.23,8.23,0,0,0,5.343,7.782V122.4A8.23,8.23,0,0,0,165.6,130.182Z" transform="translate(-159.445 -115.781)"/><path class="e" d="M243.2,122.4v15.563a8.346,8.346,0,0,0,5.343-7.782A8.23,8.23,0,0,0,243.2,122.4Z" transform="translate(-228.079 -115.781)"/><path class="e" d="M144.455,76.8h-6.736A14.165,14.165,0,0,0,123.2,91.318,14.4,14.4,0,0,0,137.718,105.6h6.736c7.9,0,15.1-6.388,15.1-14.286A14.864,14.864,0,0,0,144.455,76.8Zm-6.736,27.526A13.183,13.183,0,1,1,150.959,91.2,13.285,13.285,0,0,1,137.718,104.326Z" transform="translate(-123.2 -76.8)"/></g><g transform="translate(139.155 457.011)"><path class="f" d="M43.2,187.756h2.008l-1-2.556Z" transform="translate(-38.272 -182.827)"/><path class="g" d="M49.379,164.4v1.1l-.548-1.1h-4.29v1.1l-.548-1.1H38.152a5.557,5.557,0,0,0-2.556.548V164.4H31.489v.548a2.632,2.632,0,0,0-1.734-.548H15.06l-1,2.282-1-2.282H8.4v1.1l-.548-1.1H3.925L2.1,168.69,0,173.436H4.655l.548-1.46H6.48l.548,1.46h5.294v-1.1l.456,1.1h2.647l.456-1.1v1.1H28.569v-2.373h.183c.183,0,.183,0,.183.274v2.008h6.572V172.8a5.468,5.468,0,0,0,2.464.548h2.738l.548-1.46h1.278l.548,1.46h5.294v-1.369l.821,1.369h4.29V164.4Zm-30.85,7.667H16.977v-5.02l-2.191,5.02H13.417l-2.191-5.02v5.02h-3.1L7.484,170.7h-3.1l-.548,1.46H2.1l2.738-6.48H7.119l2.556,6.115v-6.115h2.464l2.008,4.381,1.825-4.381h2.556Zm6.207-5.02h-3.56v1.187h3.468v1.278H21.175v1.278h3.56v1.369H19.624v-6.48h5.111Zm6.846,2.647a2.283,2.283,0,0,1,.274,1.187v1.278H30.3v-.821a2.174,2.174,0,0,0-.274-1.278c-.274-.274-.548-.274-1.1-.274H27.291v2.373H25.739v-6.48h3.468a3.5,3.5,0,0,1,1.825.274,1.555,1.555,0,0,1,.73,1.46,1.817,1.817,0,0,1-1.1,1.734A1.736,1.736,0,0,1,31.581,169.694Zm2.738,2.373H32.767v-6.48h1.552Zm17.981,0H50.109l-2.921-4.837v4.837h-3.1l-.548-1.369H40.343l-.548,1.46H38.061a2.744,2.744,0,0,1-3.012-3.195,3.741,3.741,0,0,1,.821-2.556,2.877,2.877,0,0,1,2.282-.73h1.46v1.369h-1.46a1.683,1.683,0,0,0-1.187.365,2.143,2.143,0,0,0-.456,1.46,1.986,1.986,0,0,0,.456,1.552,1.455,1.455,0,0,0,1.1.365H38.7l2.1-5.02h2.282l2.556,6.115v-6.115h2.282l2.647,4.472v-4.472h1.552v6.3Z" transform="translate(0 -164.4)"/><g transform="translate(23.001 2.374)"><path class="h" d="M358.4,187.756h2.1l-1-2.556Z" transform="translate(-340.51 -185.2)"/><path class="h" d="M203.973,282.4v-5.2l-2.373,2.556Z" transform="translate(-201.6 -266.704)"/></g><path class="f" d="M136.8,282.8v1.187h3.377v1.278H136.8v1.369h3.742l1.734-1.917-1.643-1.917Z" transform="translate(-121.192 -269.292)"/><path class="h" d="M237.917,282.8H236v1.643h2.008c.548,0,.913-.274.913-.821A.921.921,0,0,0,237.917,282.8Z" transform="translate(-209.074 -269.292)"/><path class="f" d="M155.559,264.507V260.4h-3.833a3,3,0,0,0-1.917.548V260.4h-4.2a2.9,2.9,0,0,0-1.825.548V260.4h-7.393v.548a3.528,3.528,0,0,0-2.008-.548h-4.929v.548a3.464,3.464,0,0,0-2.1-.548h-5.476l-1.278,1.369-1.187-1.369H111.2v8.945h8.032l1.278-1.369,1.187,1.369h4.929v-2.1h.639a5.552,5.552,0,0,0,2.1-.274v2.464h4.107v-2.373h.183c.274,0,.274,0,.274.274v2.1H146.34a3.579,3.579,0,0,0,2.1-.548v.548h3.925a4.1,4.1,0,0,0,2.191-.456h0a3.107,3.107,0,0,0,1.46-2.738A3.5,3.5,0,0,0,155.559,264.507Zm-28.295,1.46h-1.825v2.191h-2.921l-1.825-2.1-1.917,2.1h-6.024v-6.48h6.115l1.825,2.1,1.917-2.1h4.838c1.187,0,2.556.365,2.556,2.1C129.911,265.6,128.633,265.968,127.264,265.968Zm9.127-.365a2.071,2.071,0,0,1,.274,1.187v1.278h-1.552v-.821a2.037,2.037,0,0,0-.274-1.278c-.183-.274-.548-.274-1.1-.274H132.1v2.373H130.55v-6.48h3.468a3.675,3.675,0,0,1,1.825.274,1.615,1.615,0,0,1,.821,1.46,1.817,1.817,0,0,1-1.1,1.734A1.561,1.561,0,0,1,136.392,265.6Zm6.3-2.647h-3.56v1.187H142.6v1.278H139.13V266.7h3.56v1.369h-5.111v-6.48h5.111Zm3.833,5.111H143.6V266.7h2.921a.77.77,0,0,0,.639-.182.662.662,0,0,0,0-.913.772.772,0,0,0-.548-.183c-1.46-.091-3.195,0-3.195-2.008,0-.913.548-1.917,2.191-1.917h3.012v1.552h-2.829a1.353,1.353,0,0,0-.639.091c-.183.091-.183.274-.183.456,0,.274.183.365.365.456a1.158,1.158,0,0,0,.548.091h.821a2.324,2.324,0,0,1,1.734.548,1.889,1.889,0,0,1,.456,1.369C148.9,267.428,148.075,268.067,146.523,268.067Zm7.85-.639a2.662,2.662,0,0,1-1.917.639h-2.921V266.7h2.921a.77.77,0,0,0,.639-.182.662.662,0,0,0,0-.913.772.772,0,0,0-.548-.183c-1.46-.091-3.195,0-3.195-2.008,0-.913.548-1.917,2.191-1.917h3.012v1.552h-2.738a1.353,1.353,0,0,0-.639.091c-.183.091-.183.274-.183.456,0,.274.091.365.365.456a1.158,1.158,0,0,0,.548.091h.821a2.324,2.324,0,0,1,1.734.548.089.089,0,0,1,.091.091,2.1,2.1,0,0,1,.365,1.278A1.858,1.858,0,0,1,154.372,267.428Z" transform="translate(-98.512 -249.447)"/><path class="h" d="M297.756,283.691a1.779,1.779,0,0,0-.73-.091H295.2v1.46h1.825a1.78,1.78,0,0,0,.73-.091.711.711,0,0,0,.274-.639A.507.507,0,0,0,297.756,283.691Z" transform="translate(-261.521 -270)"/><g transform="translate(23.001 2.374)"><path class="f" d="M241.756,187.691a1.779,1.779,0,0,0-.73-.091H239.2v1.46h1.825a1.779,1.779,0,0,0,.73-.091.711.711,0,0,0,.274-.639A.507.507,0,0,0,241.756,187.691Z" transform="translate(-234.91 -187.326)"/><path class="i" d="M358.4,187.756h2.1l-1-2.556Z" transform="translate(-340.51 -185.2)"/><path class="f" d="M203.973,282.4v-5.2l-2.373,2.556Z" transform="translate(-201.6 -266.704)"/></g><g transform="translate(26.926 13.509)"><path class="f" d="M237.917,282.8H236v1.643h2.008c.548,0,.913-.274.913-.821A.921.921,0,0,0,237.917,282.8Z" transform="translate(-236 -282.8)"/></g><g transform="translate(33.68 13.6)"><path class="f" d="M297.756,283.691a1.779,1.779,0,0,0-.73-.091H295.2v1.46h1.825a1.78,1.78,0,0,0,.73-.091.711.711,0,0,0,.274-.639A.507.507,0,0,0,297.756,283.691Z" transform="translate(-295.2 -283.6)"/></g><path class="f" d="M136.8,282.8v1.187h3.377v1.278H136.8v1.369h3.742l1.734-1.917-1.643-1.917Z" transform="translate(-122.302 -269.292)"/></g><g transform="translate(499.334 454)"><path class="j" d="M78.94,139.5h6.432a5.128,5.128,0,0,0,4.877-4.876V112.851H84.029a4.766,4.766,0,0,0-5.089,5.018Z" transform="translate(-76.148 -112.851)"/><path class="k" d="M194.583,139.5h6.432a5.129,5.129,0,0,0,4.877-4.876V112.851h-6.22a4.765,4.765,0,0,0-5.089,5.018V139.5Z" transform="translate(-179.068 -112.851)"/><path class="l" d="M311.82,139.5h6.432a5.129,5.129,0,0,0,4.877-4.876V112.851h-6.22a4.766,4.766,0,0,0-5.089,5.018V139.5h0Z" transform="translate(-283.406 -112.851)"/><path class="m" d="M310.064,201.882a2,2,0,0,1-2.12,1.908h-8.905v-7.775h8.905a1.979,1.979,0,1,1,0,3.959A2,2,0,0,1,310.064,201.882Zm-7.633-2.332h2.757a1.343,1.343,0,0,0,0-2.686H302.43Zm2.828,3.392a1.343,1.343,0,1,0,0-2.686H302.43v2.685h2.828Z" transform="translate(-272.031 -186.867)"/><path class="m" d="M193.331,202.452V203.8h-6.786a3.887,3.887,0,1,1,0-7.774h6.786v1.414a22.574,22.574,0,0,0-3.959-.566,3.039,3.039,0,0,0,0,6.078A21.135,21.135,0,0,0,193.331,202.452Z" transform="translate(-168.455 -186.871)"/><path class="m" d="M64.414,200.967H62.648c.5,1.979,2.827,3.535,5.443,3.535,2.4,0,5.655-1.344,5.655-3.888V196.02H69.716v4.594a2.419,2.419,0,0,1-2.545,2.4A2.706,2.706,0,0,1,64.414,200.967Z" transform="translate(-62.648 -186.871)"/></g><g transform="translate(226.765 461.392)"><circle class="n" cx="6.114" cy="6.114" r="6.114" transform="translate(32.568 0.117)"/><path class="o" d="M3.292,172.4H0v11.523H3.292a6.378,6.378,0,0,0,4.115-1.293,5.814,5.814,0,0,0,2.116-4.468C9.524,174.752,7.055,172.4,3.292,172.4ZM6,181.1a4.519,4.519,0,0,1-3.057.941H2.234V174.4h.588a3.99,3.99,0,0,1,3.057.941,3.756,3.756,0,0,1,1.293,2.822A3.515,3.515,0,0,1,6,181.1Z" transform="translate(0 -171.93)"/><rect class="o" width="2.234" height="11.523" transform="translate(10.582 0.47)"/><path class="o" d="M98.3,176.186c-1.411-.47-1.764-.823-1.764-1.411a1.488,1.488,0,0,1,1.646-1.293,2.275,2.275,0,0,1,1.881.941l1.176-1.529a5.123,5.123,0,0,0-3.41-1.293,3.45,3.45,0,0,0-3.645,3.292c0,1.646.705,2.352,2.822,3.175a4.572,4.572,0,0,1,1.529.705,1.293,1.293,0,0,1,.705,1.176,1.639,1.639,0,0,1-1.764,1.646,2.742,2.742,0,0,1-2.469-1.529L93.6,181.477a4.611,4.611,0,0,0,4,2.234,3.708,3.708,0,0,0,4-3.763C101.6,177.949,100.89,177.126,98.3,176.186Z" transform="translate(-79.843 -171.248)"/><path class="p" d="M152.8,175.432a5.974,5.974,0,0,0,6.114,6,6.651,6.651,0,0,0,2.822-.705v-2.7a3.656,3.656,0,0,1-2.7,1.293,3.8,3.8,0,0,1-3.88-4,3.845,3.845,0,0,1,3.762-4,3.707,3.707,0,0,1,2.822,1.293v-2.7a5.908,5.908,0,0,0-2.822-.705A6.5,6.5,0,0,0,152.8,175.432Z" transform="translate(-130.342 -169.2)"/><path d="M307.126,180.16l-3.057-7.76H301.6l4.821,11.875h1.293L312.77,172.4H310.3Z" transform="translate(-257.273 -171.93)"/><path d="M384,183.923h6.467v-1.881h-4.115v-3.175h4v-2h-4V174.4h4.115v-2H384Z" transform="translate(-327.562 -171.93)"/><g transform="translate(0 0.47)"><path class="o" d="M443.221,179.1a3.1,3.1,0,0,0,2.7-3.292c0-2.116-1.529-3.41-4.115-3.41H438.4v11.523h2.234v-4.586h.353l3.175,4.586h2.7Zm-1.881-1.411h-.705v-3.527h.705c1.411,0,2.234.588,2.234,1.764S442.75,177.691,441.34,177.691Z" transform="translate(-373.967 -172.4)"/><path class="o" d="M3.292,172.4H0v11.523H3.292a6.378,6.378,0,0,0,4.115-1.293,5.814,5.814,0,0,0,2.116-4.468C9.524,174.752,7.055,172.4,3.292,172.4ZM6,181.1a4.519,4.519,0,0,1-3.057.941H2.234V174.4h.588a3.99,3.99,0,0,1,3.057.941,3.756,3.756,0,0,1,1.293,2.822A3.515,3.515,0,0,1,6,181.1Z" transform="translate(0 -172.4)"/></g><g transform="translate(10.582 0.47)"><rect class="o" width="2.234" height="11.523" transform="translate(0 0)"/></g><g transform="translate(13.757 0.352)"><path class="o" d="M98.3,176.186c-1.411-.47-1.764-.823-1.764-1.411a1.488,1.488,0,0,1,1.646-1.293,2.275,2.275,0,0,1,1.881.941l1.176-1.529a5.123,5.123,0,0,0-3.41-1.293,3.45,3.45,0,0,0-3.645,3.292c0,1.646.705,2.352,2.822,3.175a4.572,4.572,0,0,1,1.529.705,1.293,1.293,0,0,1,.705,1.176,1.639,1.639,0,0,1-1.764,1.646,2.742,2.742,0,0,1-2.469-1.529L93.6,181.477a4.611,4.611,0,0,0,4,2.234,3.708,3.708,0,0,0,4-3.763C101.6,177.949,100.89,177.126,98.3,176.186Z" transform="translate(-93.6 -171.6)"/><path class="o" d="M159.693,190.982a6.651,6.651,0,0,0,2.822-.705v-2.7a3.656,3.656,0,0,1-2.7,1.293,3.8,3.8,0,0,1-3.88-4,4.4,4.4,0,0,1,1.176-2.939l-1.529-1.528a6.118,6.118,0,0,0-2,4.468A5.865,5.865,0,0,0,159.693,190.982Z" transform="translate(-144.76 -179.107)"/></g><path d="M443.221,179.1a3.1,3.1,0,0,0,2.7-3.292c0-2.116-1.529-3.41-4.115-3.41H438.4v11.523h2.234v-4.586h.353l3.175,4.586h2.7Zm-1.881-1.411h-.705v-3.527h.705c1.411,0,2.234.588,2.234,1.764S442.75,177.691,441.34,177.691Z" transform="translate(-373.968 -171.93)"/><g transform="translate(44.327 0.47)"><path class="p" d="M388.468,212.068h-2.116v-2.116L384,207.6v6.349h6.349Z" transform="translate(-371.889 -202.427)"/><path class="p" d="M309.713,173.576l-2.587,6.584-3.057-7.76H301.6l4.821,11.875h1.293l3.762-8.936Z" transform="translate(-301.6 -172.4)"/></g></g></g></svg>