<svg xmlns="http://www.w3.org/2000/svg" width="131.686" height="25.425" viewBox="0 0 131.686 25.425"><defs><style>.a,.b{fill:#3d8f85;}.a{font-size:16px;font-family:Montserrat-Bold, Montserrat;font-weight:700;letter-spacing:0.05em;}.c{fill:#585858;}.d{fill:#e24c2c;}</style></defs><g transform="translate(-85.314 -30.287)"><g transform="translate(15 -27)"><text class="a" transform="translate(102 75)"><tspan x="0" y="0">MY LETTER</tspan></text></g><g transform="translate(-4.706 -4.712)"><circle class="b" cx="8" cy="8" r="8" transform="translate(94.706 39.712)"/><path class="c" d="M17.931,18.321A9.531,9.531,0,1,0,2.177,7.6L0,5.168A12.707,12.707,0,1,1,20.11,20.7Z" transform="translate(92.475 35)"/><path class="d" d="M0,.382,3.16,0a9.546,9.546,0,0,0,9.519,8.995,9.5,9.5,0,0,0,3.013-.488L17.3,11.3a12.645,12.645,0,0,1-4.619.868A12.73,12.73,0,0,1,0,.382Z" transform="translate(90.021 48.252)"/></g></g></svg>