<svg xmlns="http://www.w3.org/2000/svg" width="9.217" height="12.742" viewBox="0 0 9.217 12.742"><defs><style>.a{fill:#b6b6b6;}</style></defs><g transform="translate(0)"><path class="a" d="M99.7,6.244h-.136V4.494a3.5,3.5,0,0,0-7,0V6.244h-.136a.975.975,0,0,0-.974.974v4.591a1.929,1.929,0,0,0,1.927,1.927h5.362a1.929,1.929,0,0,0,1.927-1.927V7.218A.975.975,0,0,0,99.7,6.244ZM93.4,4.494h0a2.66,2.66,0,0,1,5.321,0V6.244h-.411V4.478a2.249,2.249,0,0,0-4.5,0V6.244H93.4Zm4.07-.015V6.244h-2.82V4.478a1.41,1.41,0,1,1,2.82,0Zm2.359,7.33h0A1.09,1.09,0,0,1,98.744,12.9H93.381a1.09,1.09,0,0,1-1.088-1.088V7.218a.135.135,0,0,1,.135-.135H99.7a.135.135,0,0,1,.135.135v4.591Z" transform="translate(-91.454 -0.994)"/></g></svg>