<svg xmlns="http://www.w3.org/2000/svg" xmlns:xlink="http://www.w3.org/1999/xlink" width="90.502" height="102.804" viewBox="0 0 90.502 102.804"><defs><style>.a{fill:none;}.b{fill:#fee3dc;opacity:0.3;}.c{clip-path:url(#a);}.d{fill:#f0b89f;}.e{fill:#009ceb;}.f{fill:#d46e59;}.g{fill:#7700e6;}.h{fill:#3d8f85;}.i{fill:#38a295;}.j{fill:#493030;}.k{fill:#eb7f61;}.l{opacity:0.2;}.m{fill:#e59c7e;}.n{fill:#e24c2c;}.o{opacity:0.1;}</style><clipPath id="a"><path class="a" d="M278.552,206.515c-1.064-7.528-3.751-14.8-4.268-22.385-.34-4.993.269-10.021-.175-15.005a23.286,23.286,0,0,0-2.334-8.591c.764-2.053,1.532-4.094,2.269-6.12,1.9-5.239,3.585-11.333-.08-16.225-2.955-3.943-6.727-4.546-10.779-2.085-4.454,2.7-7.843,7.056-12.132,10.037a58.248,58.248,0,0,1-11.829,6.131l-19.179-.161c-8.432-.071-17.769.194-23.917,5.964-6.214,5.832-7.014,15.261-7.36,23.776-.609,15.008-.966,30.528,4.626,44.469,1.618,4.036,3.961,8.119,7.872,10.021,4.27,2.078,9.534,1.017,13.561-1.5a27.51,27.51,0,0,0,5.164-4.3,85.126,85.126,0,0,1,10.473-.524c7,.292,13.726,2.827,20.694,3.577s14.959-.839,18.818-6.688a15.467,15.467,0,0,0,2.328-8.758l.063.083a3.457,3.457,0,0,0,6.216-1.519A35.024,35.024,0,0,0,278.552,206.515Z" transform="translate(-188.439 -134.638)"/></clipPath></defs><g transform="translate(-206.439 -328.693)"><g transform="translate(206.439 328.693)"><path class="b" d="M235.3,154.107c-9.948,3.435-20.48,6.209-28.621,12.879-13.28,10.881-17.153,30.568-12.247,47.02,1.669,5.6,4.49,11.23,9.494,14.243,8.015,4.827,18.23,1.37,27.578,1.76,7,.292,13.726,2.827,20.694,3.577s14.959-.839,18.817-6.688c3.026-4.587,2.725-10.638,1.241-15.929s-4.016-10.266-5.192-15.634c-3.017-13.782,3.2-27.661,8.019-40.922,1.9-5.239,3.585-11.333-.08-16.225-2.955-3.943-6.727-4.546-10.779-2.085-4.454,2.7-7.843,7.056-12.133,10.037A68.035,68.035,0,0,1,235.3,154.107Z" transform="translate(-189.484 -134.638)"/><g transform="translate(0 0)"><g class="c" transform="translate(0 0)"><g transform="translate(4.676 23.699)"><g transform="translate(44.999)"><path class="d" d="M262.04,205.677a3.911,3.911,0,0,0-2.7-2.4c.046-.857-1.061-1.514-1.9-1.347a2.01,2.01,0,0,0-1.491,1.868,3.184,3.184,0,0,0,.962,2.309,4.612,4.612,0,0,0,4.158,1.315C261.65,206.874,262.318,206.428,262.04,205.677Z" transform="translate(-255.943 -176.103)"/><path class="e" d="M278.027,189.9a10.764,10.764,0,0,0-4.481,5.089,24.551,24.551,0,0,0-1.755,6.649c-.143.968-.394,2.109-1.3,2.473a2.688,2.688,0,0,1-2.039-.294,22.646,22.646,0,0,1-4.879-2.7c-1.635,1.029-2.138,2.13-1.809,3.837a32.641,32.641,0,0,0,5.976,3.182,11.208,11.208,0,0,0,6.716.716,8.458,8.458,0,0,0,5.528-4.434C282.22,199.854,279.379,194.8,278.027,189.9Z" transform="translate(-257.455 -172.933)"/><path class="f" d="M278.027,189.9a10.764,10.764,0,0,0-4.481,5.089,24.551,24.551,0,0,0-1.755,6.649c-.143.968-.394,2.109-1.3,2.473a2.688,2.688,0,0,1-2.039-.294,22.646,22.646,0,0,1-4.879-2.7c-1.635,1.029-2.138,2.13-1.809,3.837a32.641,32.641,0,0,0,5.976,3.182,11.208,11.208,0,0,0,6.716.716,8.458,8.458,0,0,0,5.528-4.434C282.22,199.854,279.379,194.8,278.027,189.9Z" transform="translate(-257.455 -172.933)"/><path class="g" d="M279.51,225.394a202.978,202.978,0,0,0,1.9,39.278c3.776-1.923,8.2-2.587,12.213-3.951-1.285-12.959-5.384-25.88-10.048-38.039C282.355,223.646,280.728,224.43,279.51,225.394Z" transform="translate(-262.104 -181.591)"/><path class="h" d="M279.51,225.394a202.978,202.978,0,0,0,1.9,39.278c3.776-1.923,8.2-2.587,12.213-3.951-1.285-12.959-5.384-25.88-10.048-38.039C282.355,223.646,280.728,224.43,279.51,225.394Z" transform="translate(-262.104 -181.591)"/><path class="i" d="M279.249,226.468a275.017,275.017,0,0,0,9.552,38.308c2.584-.486,5.2-1.053,7.282-2.652A271.43,271.43,0,0,1,293.7,226.6a42,42,0,0,1-13.339,2.062C280.136,228.186,279.471,226.945,279.249,226.468Z" transform="translate(-262.098 -182.591)"/><path class="j" d="M276.819,175.869a7.57,7.57,0,0,1-7.61-6.051,13.345,13.345,0,0,0,5.479-1.387,15.947,15.947,0,0,1,5.438-1.583,5.094,5.094,0,0,1,4.81,2.43c1.045.213,1.665,1.408,1.927,2.442a7.528,7.528,0,0,1-3.793,8.511,7.842,7.842,0,0,0-2.519-3.044C279.5,176.529,277.52,176.889,276.819,175.869Z" transform="translate(-259.447 -166.843)"/><path class="k" d="M285.461,187.173c5.1,1.709,4.98,3.188,6.218,7.18,2.227,7.178,3.6,18.324,2.77,25.794-3.245,1.552-7.154.937-10.737.62a24.434,24.434,0,0,1-6.616-1.207c1.936-8.584-1.5-18.318.939-26.775A8.68,8.68,0,0,1,285.461,187.173Z" transform="translate(-261.53 -172.212)"/><path class="d" d="M287.28,180.975q.53,2.93.832,5.9a4.81,4.81,0,0,1-3.651.929,37.448,37.448,0,0,0-1.4-5C284.394,182.264,285.946,181.507,287.28,180.975Z" transform="translate(-263.105 -170.575)"/><path class="l" d="M287.755,183.935a11.762,11.762,0,0,1-3.5,2.906c-.317-1.368-.756-2.711-1.194-4.045,1.333-.532,2.885-1.289,4.219-1.821Q287.546,182.45,287.755,183.935Z" transform="translate(-263.105 -170.575)"/><path class="d" d="M278.631,171.832a24.624,24.624,0,0,0,1.712,11.2,8.434,8.434,0,0,0,7.665-8.249,5.113,5.113,0,0,0-.9-3.139,5.233,5.233,0,0,0-3.519-1.8A5.544,5.544,0,0,0,278.631,171.832Z" transform="translate(-261.914 -167.622)"/><path class="j" d="M275.563,175.34a6.562,6.562,0,0,0,6.308-.805,4.128,4.128,0,0,0,1.651,1.567c.093.633.205,1.327.3,1.96.077-.023.212-.105.288-.128a8.041,8.041,0,0,1,.683-2.168c.085-.177.208-.373.4-.392.236-.023.4.225.48.449a2.66,2.66,0,0,1-.809,2.86c.175.377.6.912.777,1.29,2.4-1.606,3.084-5.116,2.008-7.8a6.362,6.362,0,0,0-12.263,2.151Z" transform="translate(-261.079 -167.199)"/><path class="m" d="M277.687,183.372a.536.536,0,0,0-.4.163.321.321,0,0,0,.05.374.738.738,0,0,0,.348.2,2.3,2.3,0,0,0,2.893-1.567c.074-.261.127-.87-.288-.851-.306.014-.56.549-.748.744A3.139,3.139,0,0,1,277.687,183.372Z" transform="translate(-261.568 -170.764)"/><path class="d" d="M286.1,236.135l-.662.765a19.5,19.5,0,0,0-2.375,2.547,4.53,4.53,0,0,0-.553,2.944.865.865,0,0,0,.158.414.85.85,0,0,0,.569.244,3.945,3.945,0,0,0,3.55-1.714,6.5,6.5,0,0,0,1.062-3.926A4.45,4.45,0,0,0,286.1,236.135Z" transform="translate(-262.944 -185.144)"/><path class="f" d="M290.261,191.426c4.411,4.721,5.73,11.687,4.973,18.1s-3.343,12.453-5.9,18.387a10.2,10.2,0,0,1-3.882-2.547c2.178-7.475,6-14.666,3.569-22.065-.706-2.154-1.793-4.206-2.1-6.451S288.233,192.438,290.261,191.426Z" transform="translate(-263.736 -173.336)"/></g><g transform="translate(0 38.396)"><path class="n" d="M211.787,253.01a16.995,16.995,0,0,1,0-33.99.736.736,0,1,1,0,1.472,15.523,15.523,0,0,0,0,31.046.736.736,0,1,1,0,1.472Z" transform="translate(-194.793 -219.02)"/></g><g transform="translate(26.654 10.188)"><path class="n" d="M240.256,223.117a.736.736,0,1,1,0-1.472,19.743,19.743,0,1,0-8.2-37.707.736.736,0,0,1-.612-1.338,21.217,21.217,0,1,1,8.813,40.517Z" transform="translate(-231.013 -180.687)"/></g><g transform="translate(18.836 14.342)"><path class="k" d="M254.423,205.133a17.194,17.194,0,0,0,0-3.481l-3.129-.709a13.973,13.973,0,0,0-.626-2.356l2.35-2.173a17.036,17.036,0,0,0-1.743-3.014l-3.061.949a14.19,14.19,0,0,0-1.721-1.721l.949-3.061a17.037,17.037,0,0,0-3.014-1.743l-2.173,2.35a13.973,13.973,0,0,0-2.356-.626l-.709-3.13q-.859-.086-1.74-.088a17.418,17.418,0,0,0-1.74.088l-.709,3.13a14,14,0,0,0-2.356.626l-2.173-2.35a17.038,17.038,0,0,0-3.014,1.743l.95,3.061a14.144,14.144,0,0,0-1.722,1.721l-3.061-.949a17.034,17.034,0,0,0-1.743,3.014l2.35,2.173a13.973,13.973,0,0,0-.626,2.356l-3.129.709a17.338,17.338,0,0,0,0,3.481l3.129.709a13.973,13.973,0,0,0,.626,2.356l-2.35,2.174a17.061,17.061,0,0,0,1.743,3.014l3.061-.95a14.1,14.1,0,0,0,1.722,1.722l-.95,3.061a17.033,17.033,0,0,0,3.014,1.743l2.173-2.35a13.927,13.927,0,0,0,2.356.626l.709,3.13a17.338,17.338,0,0,0,3.481,0l.709-3.13a13.9,13.9,0,0,0,2.356-.626l2.173,2.35a17.033,17.033,0,0,0,3.014-1.743l-.949-3.061a14.144,14.144,0,0,0,1.721-1.722l3.061.95a17.063,17.063,0,0,0,1.743-3.014l-2.35-2.174a13.973,13.973,0,0,0,.626-2.356Zm-16.972,7.3a9.043,9.043,0,1,1,9.043-9.043A9.042,9.042,0,0,1,237.451,212.435Z" transform="translate(-220.39 -186.332)"/><path class="o" d="M239.753,195.05A10.645,10.645,0,1,0,250.4,205.7,10.645,10.645,0,0,0,239.753,195.05Zm0,19.688A9.043,9.043,0,1,1,248.8,205.7,9.042,9.042,0,0,1,239.753,214.738Z" transform="translate(-222.693 -188.635)"/></g><g transform="translate(3.376 41.773)"><path class="k" d="M226.548,238.616a13.835,13.835,0,0,0,0-2.778l-2.5-.566a11.183,11.183,0,0,0-.5-1.88l1.876-1.735a13.618,13.618,0,0,0-1.392-2.406l-2.442.758a11.334,11.334,0,0,0-1.375-1.375l.758-2.442a13.579,13.579,0,0,0-2.406-1.392l-1.734,1.876a11.219,11.219,0,0,0-1.88-.5l-.566-2.5a13.692,13.692,0,0,0-2.778,0l-.566,2.5a11.2,11.2,0,0,0-1.88.5l-1.735-1.876a13.573,13.573,0,0,0-2.406,1.392l.758,2.442a11.334,11.334,0,0,0-1.375,1.375l-2.442-.758a13.572,13.572,0,0,0-1.392,2.406l1.876,1.735a11.18,11.18,0,0,0-.5,1.88l-2.5.566a13.689,13.689,0,0,0,0,2.778l2.5.566a11.218,11.218,0,0,0,.5,1.88l-1.876,1.734a13.578,13.578,0,0,0,1.392,2.406l2.442-.758a11.274,11.274,0,0,0,1.375,1.374l-.758,2.443a13.618,13.618,0,0,0,2.406,1.392l1.735-1.877a11.131,11.131,0,0,0,1.88.5l.566,2.5a13.832,13.832,0,0,0,2.778,0l.566-2.5a11.15,11.15,0,0,0,1.88-.5l1.734,1.877a13.624,13.624,0,0,0,2.406-1.392l-.758-2.443a11.274,11.274,0,0,0,1.375-1.374l2.442.758a13.624,13.624,0,0,0,1.392-2.406l-1.876-1.734a11.22,11.22,0,0,0,.5-1.88ZM213,244.445a7.218,7.218,0,1,1,7.218-7.218A7.218,7.218,0,0,1,213,244.445Z" transform="translate(-199.381 -223.608)"/><path class="o" d="M214.837,230.567a8.5,8.5,0,1,0,8.5,8.5A8.5,8.5,0,0,0,214.837,230.567Zm0,15.716a7.218,7.218,0,1,1,7.218-7.218A7.218,7.218,0,0,1,214.837,246.283Z" transform="translate(-201.219 -225.446)"/></g><g transform="translate(1.38 2.356)"><path class="k" d="M217.451,181.526a10.532,10.532,0,0,0,0-2.125l-1.911-.433a8.463,8.463,0,0,0-.383-1.439l1.436-1.327a10.433,10.433,0,0,0-1.065-1.841l-1.868.58a8.7,8.7,0,0,0-1.052-1.051l.58-1.869a10.379,10.379,0,0,0-1.84-1.064l-1.328,1.435a8.6,8.6,0,0,0-1.439-.383l-.433-1.911a10.68,10.68,0,0,0-2.125,0l-.433,1.911a8.6,8.6,0,0,0-1.439.383l-1.327-1.435a10.379,10.379,0,0,0-1.84,1.064l.58,1.869a8.6,8.6,0,0,0-1.052,1.051l-1.869-.58a10.43,10.43,0,0,0-1.064,1.841l1.435,1.327a8.53,8.53,0,0,0-.382,1.439l-1.911.433a10.538,10.538,0,0,0,0,2.125l1.911.433a8.529,8.529,0,0,0,.382,1.439l-1.435,1.327a10.43,10.43,0,0,0,1.064,1.841l1.869-.58a8.6,8.6,0,0,0,1.052,1.051l-.58,1.869a10.424,10.424,0,0,0,1.84,1.064l1.327-1.435a8.6,8.6,0,0,0,1.439.383l.433,1.91a10.535,10.535,0,0,0,2.125,0l.433-1.91a8.6,8.6,0,0,0,1.439-.383l1.328,1.435a10.424,10.424,0,0,0,1.84-1.064l-.58-1.869a8.7,8.7,0,0,0,1.052-1.051l1.868.58a10.434,10.434,0,0,0,1.065-1.841l-1.436-1.327a8.462,8.462,0,0,0,.383-1.439Zm-10.365,4.459a5.522,5.522,0,1,1,5.522-5.522A5.522,5.522,0,0,1,207.086,185.985Z" transform="translate(-196.668 -170.045)"/><path class="o" d="M208.492,175.368a6.5,6.5,0,1,0,6.5,6.5A6.5,6.5,0,0,0,208.492,175.368Zm0,12.023a5.522,5.522,0,1,1,5.522-5.522A5.522,5.522,0,0,1,208.492,187.391Z" transform="translate(-198.074 -171.451)"/></g></g></g></g></g></g></svg>